<?xml version="1.0" encoding="UTF-8" standalone="no"?>
<svg
   xmlns:dc="http://purl.org/dc/elements/1.1/"
   xmlns:cc="http://creativecommons.org/ns#"
   xmlns:rdf="http://www.w3.org/1999/02/22-rdf-syntax-ns#"
   xmlns:svg="http://www.w3.org/2000/svg"
   xmlns="http://www.w3.org/2000/svg"
   id="svg817"
   height="201mm"
   width="301mm"
   version="1.0">
  <metadata
     id="metadata821">
    <rdf:RDF>
      <cc:Work
         rdf:about="">
        <dc:format>image/svg+xml</dc:format>
        <dc:type
           rdf:resource="http://purl.org/dc/dcmitype/StillImage" />
        <dc:title></dc:title>
      </cc:Work>
    </rdf:RDF>
  </metadata>
  <defs
     id="defs813">
    <pattern
       y="0"
       x="0"
       height="6"
       width="6"
       patternUnits="userSpaceOnUse"
       id="EMFhbasepattern" />
  </defs>
  <path
     id="path815"
     d="  M 920.95318,366.47729   L 909.27326,366.47729   M 920.95318,335.51751   L 920.95318,366.47729   M 909.27326,335.51751   L 920.95318,335.51751   M 909.27326,366.47729   L 909.27326,335.51751   M 745.43448,336.9575   L 745.43448,364.5573   M 756.3944,336.9575   L 745.43448,336.9575   M 756.3944,299.91778   L 756.3944,336.9575   M 745.43448,299.91778   L 756.3944,299.91778   M 745.43448,261.35806   L 745.43448,299.91778   M 756.3944,261.35806   L 745.43448,261.35806   M 756.3944,224.31834   L 756.3944,261.35806   M 745.43448,224.31834   L 756.3944,224.31834   M 745.43448,185.75862   L 745.43448,224.31834   M 756.3944,185.75862   L 745.43448,185.75862   M 756.3944,148.7189   L 756.3944,185.75862   M 745.43448,148.7189   L 756.3944,148.7189   M 745.43448,110.15918   L 745.43448,148.7189   M 756.3944,110.15918   L 745.43448,110.15918   M 756.3944,73.119458   L 756.3944,110.15918   M 745.43448,73.119458   L 756.3944,73.119458   M 745.43448,45.599662   L 745.43448,73.119458   M 783.99419,45.599662   L 745.43448,45.599662   M 783.99419,34.639743   L 783.99419,45.599662   M 821.03392,34.639743   L 783.99419,34.639743   M 821.03392,45.599662   L 821.03392,34.639743   M 859.59363,45.599662   L 821.03392,45.599662   M 859.59363,34.639743   L 859.59363,45.599662   M 896.63336,34.639743   L 859.59363,34.639743   M 896.63336,45.599662   L 896.63336,34.639743   M 935.19307,45.599662   L 896.63336,45.599662   M 935.19307,34.639743   L 935.19307,45.599662   M 972.2328,34.639743   L 935.19307,34.639743   M 972.2328,45.599662   L 972.2328,34.639743   M 1010.7925,45.599662   L 972.2328,45.599662   M 1010.7925,34.639743   L 1010.7925,45.599662   M 1047.8322,34.639743   L 1010.7925,34.639743   M 1047.8322,45.599662   L 1047.8322,34.639743   M 1086.392,45.599662   L 1047.8322,45.599662   M 1086.392,73.119458   L 1086.392,45.599662   M 1075.432,73.119458   L 1086.392,73.119458   M 1075.432,110.15918   L 1075.432,73.119458   M 1086.392,110.15918   L 1075.432,110.15918   M 1086.392,148.7189   L 1086.392,110.15918   M 1075.432,148.7189   L 1086.392,148.7189   M 1075.432,185.75862   L 1075.432,148.7189   M 1086.392,185.75862   L 1075.432,185.75862   M 1086.392,224.31834   L 1086.392,185.75862   M 1075.432,224.31834   L 1086.392,224.31834   M 1075.432,261.35806   L 1075.432,224.31834   M 1086.392,261.35806   L 1075.432,261.35806   M 1086.392,299.91778   L 1086.392,261.35806   M 1075.432,299.91778   L 1086.392,299.91778   M 1075.432,336.9575   L 1075.432,299.91778   M 1086.392,336.9575   L 1075.432,336.9575   M 1086.392,364.5573   L 1086.392,336.9575   M 1047.8322,364.5573   L 1086.392,364.5573   M 1047.8322,375.51722   L 1047.8322,364.5573   M 1010.7925,375.51722   L 1047.8322,375.51722   M 1010.7925,364.5573   L 1010.7925,375.51722   M 972.2328,364.5573   L 1010.7925,364.5573   M 972.2328,375.51722   L 972.2328,364.5573   M 935.19307,375.51722   L 972.2328,375.51722   M 935.19307,364.5573   L 935.19307,375.51722   M 896.63336,364.5573   L 935.19307,364.5573   M 896.63336,375.51722   L 896.63336,364.5573   M 859.59363,375.51722   L 896.63336,375.51722   M 859.59363,364.5573   L 859.59363,375.51722   M 821.03392,364.5573   L 859.59363,364.5573   M 821.03392,375.51722   L 821.03392,364.5573   M 783.99419,375.51722   L 821.03392,375.51722   M 783.99419,364.5573   L 783.99419,375.51722   M 745.43448,364.5573   L 783.99419,364.5573   M 1040.6323,479.99644   C 1040.6323,454.95663 1020.3124,434.63678 995.27263,434.63678   C 970.23281,434.63678 949.91296,454.95663 949.91296,479.99644   C 949.91296,505.03626 970.23281,525.35611 995.27263,525.35611   C 1020.3124,525.35611 1040.6323,505.03626 1040.6323,479.99644   z  M 885.67344,479.99644   C 885.67344,454.95663 865.35359,434.63678 840.31378,434.63678   C 815.27396,434.63678 794.95411,454.95663 794.95411,479.99644   C 794.95411,505.03626 815.27396,525.35611 840.31378,525.35611   C 865.35359,525.35611 885.67344,505.03626 885.67344,479.99644   z  M 885.67344,634.9553   C 885.67344,609.91548 865.35359,589.59563 840.31378,589.59563   C 815.27396,589.59563 794.95411,609.91548 794.95411,634.9553   C 794.95411,659.99511 815.27396,680.31496 840.31378,680.31496   C 865.35359,680.31496 885.67344,659.99511 885.67344,634.9553   z  M 1040.6323,634.9553   C 1040.6323,609.91548 1020.3124,589.59563 995.27263,589.59563   C 970.23281,589.59563 949.91296,609.91548 949.91296,634.9553   C 949.91296,659.99511 970.23281,680.31496 995.27263,680.31496   C 1020.3124,680.31496 1040.6323,659.99511 1040.6323,634.9553   z  M 704.07478,337.8375   L 704.07478,364.7173   M 715.0347,337.8375   L 704.07478,337.8375   M 715.0347,299.27778   L 715.0347,337.8375   M 704.07478,299.27778   L 715.0347,299.27778   M 704.07478,262.23806   L 704.07478,299.27778   M 715.0347,262.23806   L 704.07478,262.23806   M 715.0347,223.67834   L 715.0347,262.23806   M 704.07478,223.67834   L 715.0347,223.67834   M 704.07478,186.63862   L 704.07478,223.67834   M 715.0347,186.63862   L 704.07478,186.63862   M 715.0347,148.0789   L 715.0347,186.63862   M 704.07478,148.0789   L 715.0347,148.0789   M 704.07478,111.03918   L 704.07478,148.0789   M 715.0347,111.03918   L 704.07478,111.03918   M 715.0347,72.559463   L 715.0347,111.03918   M 704.07478,72.559463   L 715.0347,72.559463   M 704.07478,45.679662   L 704.07478,72.559463   M 676.47499,45.679662   L 704.07478,45.679662   M 676.47499,34.719743   L 676.47499,45.679662   M 639.43526,34.719743   L 676.47499,34.719743   M 639.43526,45.679662   L 639.43526,34.719743   M 600.87555,45.679662   L 639.43526,45.679662   M 600.87555,34.719743   L 600.87555,45.679662   M 563.83582,34.719743   L 600.87555,34.719743   M 563.83582,45.679662   L 563.83582,34.719743   M 525.27611,45.679662   L 563.83582,45.679662   M 525.27611,34.719743   L 525.27611,45.679662   M 488.23638,34.719743   L 525.27611,34.719743   M 488.23638,45.679662   L 488.23638,34.719743   M 449.67667,45.679662   L 488.23638,45.679662   M 449.67667,34.719743   L 449.67667,45.679662   M 412.63694,34.719743   L 449.67667,34.719743   M 412.63694,45.679662   L 412.63694,34.719743   M 385.03715,45.679662   L 412.63694,45.679662   M 385.03715,72.559463   L 385.03715,45.679662   M 374.07723,72.559463   L 385.03715,72.559463   M 374.07723,111.03918   L 374.07723,72.559463   M 385.03715,111.03918   L 374.07723,111.03918   M 385.03715,148.0789   L 385.03715,111.03918   M 374.07723,148.0789   L 385.03715,148.0789   M 374.07723,186.63862   L 374.07723,148.0789   M 385.03715,186.63862   L 374.07723,186.63862   M 385.03715,223.67834   L 385.03715,186.63862   M 374.07723,223.67834   L 385.03715,223.67834   M 374.07723,262.23806   L 374.07723,223.67834   M 385.03715,262.23806   L 374.07723,262.23806   M 385.03715,299.27778   L 385.03715,262.23806   M 374.07723,299.27778   L 385.03715,299.27778   M 374.07723,337.8375   L 374.07723,299.27778   M 385.03715,337.8375   L 374.07723,337.8375   M 385.03715,364.7173   L 385.03715,337.8375   M 412.63694,364.7173   L 385.03715,364.7173   M 412.63694,375.67722   L 412.63694,364.7173   M 449.67667,375.67722   L 412.63694,375.67722   M 449.67667,364.7173   L 449.67667,375.67722   M 488.23638,364.7173   L 449.67667,364.7173   M 488.23638,375.67722   L 488.23638,364.7173   M 525.27611,375.67722   L 488.23638,375.67722   M 525.27611,364.7173   L 525.27611,375.67722   M 563.83582,364.7173   L 525.27611,364.7173   M 563.83582,375.67722   L 563.83582,364.7173   M 600.87555,375.67722   L 563.83582,375.67722   M 600.87555,364.7173   L 600.87555,375.67722   M 639.43526,364.7173   L 600.87555,364.7173   M 639.43526,375.67722   L 639.43526,364.7173   M 676.47499,375.67722   L 639.43526,375.67722   M 676.47499,364.7173   L 676.47499,375.67722   M 704.07478,364.7173   L 676.47499,364.7173   M 66.479508,375.67722   L 66.479508,364.7173   M 27.999793,375.67722   L 66.479508,375.67722   M 27.999793,337.1175   L 27.999793,375.67722   M 38.959711,337.1175   L 27.999793,337.1175   M 38.959711,300.07778   L 38.959711,337.1175   M 27.999793,300.07778   L 38.959711,300.07778   M 27.999793,261.51806   L 27.999793,300.07778   M 38.959711,261.51806   L 27.999793,261.51806   M 38.959711,224.47834   L 38.959711,261.51806   M 27.999793,224.47834   L 38.959711,224.47834   M 27.999793,185.91862   L 27.999793,224.47834   M 38.959711,185.91862   L 27.999793,185.91862   M 38.959711,148.8789   L 38.959711,185.91862   M 27.999793,148.8789   L 38.959711,148.8789   M 27.999793,110.31918   L 27.999793,148.8789   M 38.959711,110.31918   L 27.999793,110.31918   M 38.959711,73.279457   L 38.959711,110.31918   M 27.999793,73.279457   L 38.959711,73.279457   M 27.999793,34.719743   L 27.999793,73.279457   M 66.479508,34.719743   L 27.999793,34.719743   M 66.479508,45.679662   L 66.479508,34.719743   M 103.51923,45.679662   L 66.479508,45.679662   M 103.51923,34.719743   L 103.51923,45.679662   M 142.07895,34.719743   L 103.51923,34.719743   M 142.07895,45.679662   L 142.07895,34.719743   M 179.11867,45.679662   L 142.07895,45.679662   M 179.11867,34.719743   L 179.11867,45.679662   M 217.67839,34.719743   L 179.11867,34.719743   M 217.67839,45.679662   L 217.67839,34.719743   M 254.71811,45.679662   L 217.67839,45.679662   M 254.71811,34.719743   L 254.71811,45.679662   M 293.27783,34.719743   L 254.71811,34.719743   M 293.27783,45.679662   L 293.27783,34.719743   M 330.31755,45.679662   L 293.27783,45.679662   M 330.31755,34.719743   L 330.31755,45.679662   M 368.87727,34.719743   L 330.31755,34.719743   M 368.87727,73.279457   L 368.87727,34.719743   M 357.91735,73.279457   L 368.87727,73.279457   M 357.91735,110.31918   L 357.91735,73.279457   M 368.87727,110.31918   L 357.91735,110.31918   M 368.87727,148.8789   L 368.87727,110.31918   M 357.91735,148.8789   L 368.87727,148.8789   M 357.91735,185.91862   L 357.91735,148.8789   M 368.87727,185.91862   L 357.91735,185.91862   M 368.87727,224.47834   L 368.87727,185.91862   M 357.91735,224.47834   L 368.87727,224.47834   M 357.91735,261.51806   L 357.91735,224.47834   M 368.87727,261.51806   L 357.91735,261.51806   M 368.87727,300.07778   L 368.87727,261.51806   M 357.91735,300.07778   L 368.87727,300.07778   M 357.91735,337.1175   L 357.91735,300.07778   M 368.87727,337.1175   L 357.91735,337.1175   M 368.87727,375.67722   L 368.87727,337.1175   M 330.31755,375.67722   L 368.87727,375.67722   M 330.31755,364.7173   L 330.31755,375.67722   M 293.27783,364.7173   L 330.31755,364.7173   M 293.27783,375.67722   L 293.27783,364.7173   M 254.71811,375.67722   L 293.27783,375.67722   M 254.71811,364.7173   L 254.71811,375.67722   M 217.67839,364.7173   L 254.71811,364.7173   M 217.67839,375.67722   L 217.67839,364.7173   M 179.11867,375.67722   L 217.67839,375.67722   M 179.11867,364.7173   L 179.11867,375.67722   M 142.07895,364.7173   L 179.11867,364.7173   M 142.07895,375.67722   L 142.07895,364.7173   M 103.51923,375.67722   L 142.07895,375.67722   M 103.51923,364.7173   L 103.51923,375.67722   M 66.479508,364.7173   L 103.51923,364.7173   M 747.35446,689.35489   L 747.35446,716.95469   M 758.31438,689.35489   L 747.35446,689.35489   M 758.31438,652.31517   L 758.31438,689.35489   M 747.35446,652.31517   L 758.31438,652.31517   M 747.35446,613.75545   L 747.35446,652.31517   M 758.31438,613.75545   L 747.35446,613.75545   M 758.31438,576.71573   L 758.31438,613.75545   M 747.35446,576.71573   L 758.31438,576.71573   M 747.35446,538.15601   L 747.35446,576.71573   M 758.31438,538.15601   L 747.35446,538.15601   M 758.31438,501.11629   L 758.31438,538.15601   M 747.35446,501.11629   L 758.31438,501.11629   M 747.35446,462.63657   L 747.35446,501.11629   M 758.31438,462.63657   L 747.35446,462.63657   M 758.31438,425.59685   L 758.31438,462.63657   M 747.35446,425.59685   L 758.31438,425.59685   M 747.35446,397.99705   L 747.35446,425.59685   M 785.91418,397.99705   L 747.35446,397.99705   M 785.91418,387.03713   L 785.91418,397.99705   M 822.9539,387.03713   L 785.91418,387.03713   M 822.9539,397.99705   L 822.9539,387.03713   M 861.51362,397.99705   L 822.9539,397.99705   M 861.51362,387.03713   L 861.51362,397.99705   M 898.55334,387.03713   L 861.51362,387.03713   M 898.55334,397.99705   L 898.55334,387.03713   M 937.11306,397.99705   L 898.55334,397.99705   M 937.11306,387.03713   L 937.11306,397.99705   M 974.15278,387.03713   L 937.11306,387.03713   M 974.15278,397.99705   L 974.15278,387.03713   M 1012.7125,397.99705   L 974.15278,397.99705   M 1012.7125,387.03713   L 1012.7125,397.99705   M 1049.7522,387.03713   L 1012.7125,387.03713   M 1049.7522,397.99705   L 1049.7522,387.03713   M 1088.3119,397.99705   L 1049.7522,397.99705   M 1088.3119,425.59685   L 1088.3119,397.99705   M 1077.352,425.59685   L 1088.3119,425.59685   M 1077.352,462.63657   L 1077.352,425.59685   M 1088.3119,462.63657   L 1077.352,462.63657   M 1088.3119,501.11629   L 1088.3119,462.63657   M 1077.352,501.11629   L 1088.3119,501.11629   M 1077.352,538.15601   L 1077.352,501.11629   M 1088.3119,538.15601   L 1077.352,538.15601   M 1088.3119,576.71573   L 1088.3119,538.15601   M 1077.352,576.71573   L 1088.3119,576.71573   M 1077.352,613.75545   L 1077.352,576.71573   M 1088.3119,613.75545   L 1077.352,613.75545   M 1088.3119,652.31517   L 1088.3119,613.75545   M 1077.352,652.31517   L 1088.3119,652.31517   M 1077.352,689.35489   L 1077.352,652.31517   M 1088.3119,689.35489   L 1077.352,689.35489   M 1088.3119,716.95469   L 1088.3119,689.35489   M 1049.7522,716.95469   L 1088.3119,716.95469   M 1049.7522,727.91461   L 1049.7522,716.95469   M 1012.7125,727.91461   L 1049.7522,727.91461   M 1012.7125,716.95469   L 1012.7125,727.91461   M 974.15278,716.95469   L 1012.7125,716.95469   M 974.15278,727.91461   L 974.15278,716.95469   M 937.11306,727.91461   L 974.15278,727.91461   M 937.11306,716.95469   L 937.11306,727.91461   M 898.55334,716.95469   L 937.11306,716.95469   M 898.55334,727.91461   L 898.55334,716.95469   M 861.51362,727.91461   L 898.55334,727.91461   M 861.51362,716.95469   L 861.51362,727.91461   M 822.9539,716.95469   L 861.51362,716.95469   M 822.9539,727.91461   L 822.9539,716.95469   M 785.91418,727.91461   L 822.9539,727.91461   M 785.91418,716.95469   L 785.91418,727.91461   M 747.35446,716.95469   L 785.91418,716.95469   M 704.07478,690.15489   L 704.07478,717.03469   M 715.0347,690.15489   L 704.07478,690.15489   M 715.0347,651.59517   L 715.0347,690.15489   M 704.07478,651.59517   L 715.0347,651.59517   M 704.07478,614.55545   L 704.07478,651.59517   M 715.0347,614.55545   L 704.07478,614.55545   M 715.0347,575.99573   L 715.0347,614.55545   M 704.07478,575.99573   L 715.0347,575.99573   M 704.07478,538.95601   L 704.07478,575.99573   M 715.0347,538.95601   L 704.07478,538.95601   M 715.0347,500.39629   L 715.0347,538.95601   M 704.07478,500.39629   L 715.0347,500.39629   M 704.07478,463.35657   L 704.07478,500.39629   M 715.0347,463.35657   L 704.07478,463.35657   M 715.0347,424.87685   L 715.0347,463.35657   M 704.07478,424.87685   L 715.0347,424.87685   M 704.07478,397.99705   L 704.07478,424.87685   M 676.47499,397.99705   L 704.07478,397.99705   M 676.47499,387.03713   L 676.47499,397.99705   M 639.43526,387.03713   L 676.47499,387.03713   M 639.43526,397.99705   L 639.43526,387.03713   M 600.87555,397.99705   L 639.43526,397.99705   M 600.87555,387.03713   L 600.87555,397.99705   M 563.83582,387.03713   L 600.87555,387.03713   M 563.83582,397.99705   L 563.83582,387.03713   M 525.27611,397.99705   L 563.83582,397.99705   M 525.27611,387.03713   L 525.27611,397.99705   M 488.23638,387.03713   L 525.27611,387.03713   M 488.23638,397.99705   L 488.23638,387.03713   M 449.67667,397.99705   L 488.23638,397.99705   M 449.67667,387.03713   L 449.67667,397.99705   M 412.63694,387.03713   L 449.67667,387.03713   M 412.63694,397.99705   L 412.63694,387.03713   M 385.03715,397.99705   L 412.63694,397.99705   M 385.03715,424.87685   L 385.03715,397.99705   M 374.07723,424.87685   L 385.03715,424.87685   M 374.07723,463.35657   L 374.07723,424.87685   M 385.03715,463.35657   L 374.07723,463.35657   M 385.03715,500.39629   L 385.03715,463.35657   M 374.07723,500.39629   L 385.03715,500.39629   M 374.07723,538.95601   L 374.07723,500.39629   M 385.03715,538.95601   L 374.07723,538.95601   M 385.03715,575.99573   L 385.03715,538.95601   M 374.07723,575.99573   L 385.03715,575.99573   M 374.07723,614.55545   L 374.07723,575.99573   M 385.03715,614.55545   L 374.07723,614.55545   M 385.03715,651.59517   L 385.03715,614.55545   M 374.07723,651.59517   L 385.03715,651.59517   M 374.07723,690.15489   L 374.07723,651.59517   M 385.03715,690.15489   L 374.07723,690.15489   M 385.03715,717.03469   L 385.03715,690.15489   M 412.63694,717.03469   L 385.03715,717.03469   M 412.63694,727.99461   L 412.63694,717.03469   M 449.67667,727.99461   L 412.63694,727.99461   M 449.67667,717.03469   L 449.67667,727.99461   M 488.23638,717.03469   L 449.67667,717.03469   M 488.23638,727.99461   L 488.23638,717.03469   M 525.27611,727.99461   L 488.23638,727.99461   M 525.27611,717.03469   L 525.27611,727.99461   M 563.83582,717.03469   L 525.27611,717.03469   M 563.83582,727.99461   L 563.83582,717.03469   M 600.87555,727.99461   L 563.83582,727.99461   M 600.87555,717.03469   L 600.87555,727.99461   M 639.43526,717.03469   L 600.87555,717.03469   M 639.43526,727.99461   L 639.43526,717.03469   M 676.47499,727.99461   L 639.43526,727.99461   M 676.47499,717.03469   L 676.47499,727.99461   M 704.07478,717.03469   L 676.47499,717.03469   M 66.479508,727.99461   L 66.479508,717.03469   M 27.999793,727.99461   L 66.479508,727.99461   M 27.999793,689.43489   L 27.999793,727.99461   M 38.959711,689.43489   L 27.999793,689.43489   M 38.959711,652.39517   L 38.959711,689.43489   M 27.999793,652.39517   L 38.959711,652.39517   M 27.999793,613.83545   L 27.999793,652.39517   M 38.959711,613.83545   L 27.999793,613.83545   M 38.959711,576.79573   L 38.959711,613.83545   M 27.999793,576.79573   L 38.959711,576.79573   M 27.999793,538.23601   L 27.999793,576.79573   M 38.959711,538.23601   L 27.999793,538.23601   M 38.959711,501.19629   L 38.959711,538.23601   M 27.999793,501.19629   L 38.959711,501.19629   M 27.999793,462.63657   L 27.999793,501.19629   M 38.959711,462.63657   L 27.999793,462.63657   M 38.959711,425.59685   L 38.959711,462.63657   M 27.999793,425.59685   L 38.959711,425.59685   M 27.999793,387.03713   L 27.999793,425.59685   M 66.479508,387.03713   L 27.999793,387.03713   M 66.479508,397.99705   L 66.479508,387.03713   M 103.51923,397.99705   L 66.479508,397.99705   M 103.51923,387.03713   L 103.51923,397.99705   M 142.07895,387.03713   L 103.51923,387.03713   M 142.07895,397.99705   L 142.07895,387.03713   M 179.11867,397.99705   L 142.07895,397.99705   M 179.11867,387.03713   L 179.11867,397.99705   M 217.67839,387.03713   L 179.11867,387.03713   M 217.67839,397.99705   L 217.67839,387.03713   M 254.71811,397.99705   L 217.67839,397.99705   M 254.71811,387.03713   L 254.71811,397.99705   M 293.27783,387.03713   L 254.71811,387.03713   M 293.27783,397.99705   L 293.27783,387.03713   M 330.31755,397.99705   L 293.27783,397.99705   M 330.31755,387.03713   L 330.31755,397.99705   M 368.87727,387.03713   L 330.31755,387.03713   M 368.87727,425.59685   L 368.87727,387.03713   M 357.91735,425.59685   L 368.87727,425.59685   M 357.91735,462.63657   L 357.91735,425.59685   M 368.87727,462.63657   L 357.91735,462.63657   M 368.87727,501.19629   L 368.87727,462.63657   M 357.91735,501.19629   L 368.87727,501.19629   M 357.91735,538.23601   L 357.91735,501.19629   M 368.87727,538.23601   L 357.91735,538.23601   M 368.87727,576.79573   L 368.87727,538.23601   M 357.91735,576.79573   L 368.87727,576.79573   M 357.91735,613.83545   L 357.91735,576.79573   M 368.87727,613.83545   L 357.91735,613.83545   M 368.87727,652.39517   L 368.87727,613.83545   M 357.91735,652.39517   L 368.87727,652.39517   M 357.91735,689.43489   L 357.91735,652.39517   M 368.87727,689.43489   L 357.91735,689.43489   M 368.87727,727.99461   L 368.87727,689.43489   M 330.31755,727.99461   L 368.87727,727.99461   M 330.31755,717.03469   L 330.31755,727.99461   M 293.27783,717.03469   L 330.31755,717.03469   M 293.27783,727.99461   L 293.27783,717.03469   M 254.71811,727.99461   L 293.27783,727.99461   M 254.71811,717.03469   L 254.71811,727.99461   M 217.67839,717.03469   L 254.71811,717.03469   M 217.67839,727.99461   L 217.67839,717.03469   M 179.11867,727.99461   L 217.67839,727.99461   M 179.11867,717.03469   L 179.11867,727.99461   M 142.07895,717.03469   L 179.11867,717.03469   M 142.07895,727.99461   L 142.07895,717.03469   M 103.51923,727.99461   L 142.07895,727.99461   M 103.51923,717.03469   L 103.51923,727.99461   M 66.479508,717.03469   L 103.51923,717.03469   M 182.31865,602.79553   L 185.35863,605.83551   M 182.31865,589.67563   L 182.31865,602.79553   M 185.35863,586.63565   L 182.31865,589.67563   M 211.43843,586.63565   L 185.35863,586.63565   M 214.47841,589.67563   L 211.43843,586.63565   M 214.47841,602.79553   L 214.47841,589.67563   M 211.43843,605.83551   L 214.47841,602.79553   M 185.35863,605.83551   L 211.43843,605.83551   M 205.27848,741.9145   L 205.27848,710.95473   M 193.51857,741.9145   L 205.27848,741.9145   M 193.51857,710.95473   L 193.51857,741.9145   M 205.27848,710.95473   L 193.51857,710.95473   M 205.27848,681.43495   L 193.51857,681.43495   M 205.27848,650.47518   L 205.27848,681.43495   M 193.51857,650.47518   L 205.27848,650.47518   M 193.51857,681.43495   L 193.51857,650.47518  "
     style="fill:none;stroke:#000000;stroke-width:0.07999941px;stroke-linecap:butt;stroke-linejoin:miter;stroke-miterlimit:4;stroke-dasharray:none;stroke-opacity:1;" />
</svg>
